#!OML:ASF F:\VICON\USERDATA\INSTALL\rory3\rory3.ASF
:FULLY-SPECIFIED
:DEGREES
487
root -0.172679 16.0115 9.22826 202.343 -46.225 -187.321
lowerback -6.92274 -4.79073 -1.76098
upperback -6.75453 -6.71746 0.797875
thorax -2.84411 -3.4626 1.50671
lowerneck -16.9607 -7.49972 -9.60817
upperneck 34.1182 -14.7544 9.9024
head 16.7047 -6.95864 2.79372
rclavicle -1.27974e-013 -4.37326e-015
rhumerus -93.107 -59.2401 84.7101
rradius 14.0504
rwrist 80.6428
rhand -3.99819 4.20963
rfingers 7.12502
rthumb 21.7557 -24.5877
lclavicle -1.27974e-013 -4.37326e-015
lhumerus -31.8375 19.1463 -8.03097
lradius 18.8053
lwrist -50.2143
lhand 8.36464 30.3763
lfingers 7.12502
lthumb 33.5737 57.2537
rfemur 293.835 -15.071 -354.526
rtibia 43.8454
rfoot 146.85 -215.965
rtoes 57.0619
lfemur -6.63809 -0.629163 -23.2359
ltibia 35.009
lfoot -29.6043 26.442
ltoes -34.2862
488
root -0.213905 15.9916 8.93088 201.914 -45.0641 -187.874
lowerback -7.3911 -4.83344 -2.39899
upperback -6.66045 -6.743 0.552734
thorax -2.44855 -3.46611 1.55002
lowerneck -16.6308 -7.0699 -9.49939
upperneck 34.7179 -14.2999 9.63046
head 16.8217 -6.85333 2.76999
rclavicle 2.65564e-015 9.93923e-015
rhumerus -96.719 -57.9025 88.4066
rradius 14.1252
rwrist 82.6983
rhand -4.08605 4.67046
rfingers 7.12502
rthumb 21.6713 -24.1367
lclavicle 2.65564e-015 9.93923e-015
lhumerus -31.3884 19.8086 -8.2548
lradius 18.6072
lwrist -51.0356
lhand 8.2864 30.086
lfingers 7.12502
lthumb 33.4993 56.9795
rfemur 294.064 -15.6844 -352.521
rtibia 44.3451
rfoot 145.799 -216.548
rtoes 58.5203
lfemur -5.58927 0.911862 -22.786
ltibia 36.0162
lfoot -25.1225 26.347
ltoes -37.6297
489
root -0.250425 15.9795 8.60618 200.636 -44.1641 -187.914
lowerback -7.53217 -4.87865 -2.92273
upperback -6.48 -6.76096 0.4234
thorax -2.14132 -3.46087 1.67585
lowerneck -16.1409 -6.61226 -9.32569
upperneck 35.4073 -13.8632 9.29319
head 16.9391 -6.77496 2.70463
rclavicle -4.16205e-016 -4.77083e-015
rhumerus -101.832 -56.2904 94.08
rradius 14.2109
rwrist 85.8452
rhand -4.31525 4.71622
rfingers 7.12502
rthumb 21.4512 -24.1161
lclavicle -4.16205e-016 -4.77083e-015
lhumerus -30.8789 21.1044 -8.58273
lradius 18.32
lwrist -52.2886
lhand 7.83732 29.5085
lfingers 7.12502
lthumb 33.0723 56.4934
rfemur 295.144 -16.2537 -350.141
rtibia 44.9905
rfoot 144.123 -215.122
rtoes 60.3882
lfemur -4.22999 2.76602 -21.5149
ltibia 37.5633
lfoot -20.1572 25.4054
ltoes -38.6791
490
root -0.296638 15.947 8.3184 199.702 -43.3903 -188.011
lowerback -7.62916 -4.85853 -2.94314
upperback -6.54961 -6.75017 0.185411
thorax -2.18866 -3.46474 1.44063
lowerneck -15.5426 -6.12538 -9.24303
upperneck 36.1664 -13.4665 9.08618
head 17.1019 -6.72829 2.70295
rclavicle -1.77204e-013 -3.65764e-014
rhumerus -106.299 -54.2002 99.3066
rradius 14.3697
rwrist 88.66
rhand -4.37705 5.29179
rfingers 7.12502
rthumb 21.3919 -23.5473
lclavicle -1.77204e-013 -3.65764e-014
lhumerus -30.1147 21.3389 -8.238
lradius 18.2217
lwrist -52.3429
lhand 7.53141 29.2578
lfingers 7.12502
lthumb 32.7814 56.3039
rfemur 295.76 -17.8627 -347.145
rtibia 45.6811
rfoot 154.373 -215.439
rtoes 59.6185
lfemur -3.77354 3.94572 -20.39
ltibia 39.7616
lfoot -15.3156 24.4327
ltoes -34.853
491
root -0.338645 15.9077 8.03075 199.079 -42.5674 -188.566
lowerback -7.69457 -4.77997 -3.33568
upperback -6.6657 -6.65548 -0.184268
thorax -2.28326 -3.41887 1.28531
lowerneck -14.8702 -5.66502 -9.15098
upperneck 36.9882 -13.2237 8.98994
head 17.3207 -6.74686 2.71437
rclavicle -2.68608e-014 1.59028e-015
rhumerus -104.494 -52.4327 97.299
rradius 14.277
rwrist 86.9555
rhand -3.85751 5.41373
rfingers 7.12502
rthumb 21.8908 -23.3679
lclavicle -2.68608e-014 1.59028e-015
lhumerus -29.0063 20.3968 -7.1744
lradius 18.3687
lwrist -51.0145
lhand 7.32901 29.4158
lfingers 7.12502
lthumb 32.5888 56.5019
rfemur 296.719 -19.0023 -345.152
rtibia 46.4392
rfoot 160.38 -214.681
rtoes 56.6181
lfemur -3.85684 4.38346 -19.7075
ltibia 42.5446
lfoot -11.4276 23.8884
ltoes -23.8562
